<mxfile host="app.diagrams.net" modified="2021-03-24T15:10:51.440Z" agent="5.0 (X11; Linux x86_64) AppleWebKit/537.36 (KHTML, like Gecko) Falkon/3.1.0 Chrome/87.0.4280.144 Safari/537.36" etag="JfAALDArHc0LeAb9GPVO" version="14.5.1" type="github">
  <diagram id="U4UqY52qKRIQXD-eZskH" name="Page-1">
    <mxGraphModel dx="2067" dy="629" grid="1" gridSize="10" guides="1" tooltips="1" connect="1" arrows="1" fold="1" page="1" pageScale="1" pageWidth="827" pageHeight="1169" math="0" shadow="0">
      <root>
        <mxCell id="0" />
        <mxCell id="1" parent="0" />
        <mxCell id="yBpJ2mjrpOOtbYbF43VL-4" value="" style="edgeStyle=orthogonalEdgeStyle;rounded=0;orthogonalLoop=1;jettySize=auto;html=1;" edge="1" parent="1" source="yBpJ2mjrpOOtbYbF43VL-2" target="yBpJ2mjrpOOtbYbF43VL-3">
          <mxGeometry relative="1" as="geometry" />
        </mxCell>
        <mxCell id="yBpJ2mjrpOOtbYbF43VL-2" value="&lt;font style=&quot;font-size: 17px&quot;&gt;Input the Image&lt;/font&gt;" style="rounded=0;whiteSpace=wrap;html=1;" vertex="1" parent="1">
          <mxGeometry x="328" y="70" width="160" height="50" as="geometry" />
        </mxCell>
        <mxCell id="yBpJ2mjrpOOtbYbF43VL-7" value="" style="edgeStyle=orthogonalEdgeStyle;rounded=0;orthogonalLoop=1;jettySize=auto;html=1;" edge="1" parent="1" source="yBpJ2mjrpOOtbYbF43VL-3" target="yBpJ2mjrpOOtbYbF43VL-6">
          <mxGeometry relative="1" as="geometry" />
        </mxCell>
        <mxCell id="yBpJ2mjrpOOtbYbF43VL-3" value="&lt;font style=&quot;font-size: 17px&quot;&gt;Convert it into Gray Image&lt;/font&gt;" style="rounded=0;whiteSpace=wrap;html=1;" vertex="1" parent="1">
          <mxGeometry x="328" y="150" width="160" height="50" as="geometry" />
        </mxCell>
        <mxCell id="yBpJ2mjrpOOtbYbF43VL-24" value="" style="edgeStyle=orthogonalEdgeStyle;rounded=0;orthogonalLoop=1;jettySize=auto;html=1;" edge="1" parent="1" source="yBpJ2mjrpOOtbYbF43VL-6" target="yBpJ2mjrpOOtbYbF43VL-23">
          <mxGeometry relative="1" as="geometry" />
        </mxCell>
        <mxCell id="yBpJ2mjrpOOtbYbF43VL-6" value="&lt;font style=&quot;font-size: 16px&quot;&gt;Processing&lt;/font&gt;" style="rounded=0;whiteSpace=wrap;html=1;" vertex="1" parent="1">
          <mxGeometry x="298" y="280" width="220" height="50" as="geometry" />
        </mxCell>
        <mxCell id="yBpJ2mjrpOOtbYbF43VL-9" value="" style="endArrow=none;html=1;" edge="1" parent="1">
          <mxGeometry width="50" height="50" relative="1" as="geometry">
            <mxPoint x="107" y="240" as="sourcePoint" />
            <mxPoint x="697" y="240" as="targetPoint" />
          </mxGeometry>
        </mxCell>
        <mxCell id="yBpJ2mjrpOOtbYbF43VL-32" value="" style="edgeStyle=orthogonalEdgeStyle;rounded=0;orthogonalLoop=1;jettySize=auto;html=1;" edge="1" parent="1" source="yBpJ2mjrpOOtbYbF43VL-10" target="yBpJ2mjrpOOtbYbF43VL-31">
          <mxGeometry relative="1" as="geometry" />
        </mxCell>
        <mxCell id="yBpJ2mjrpOOtbYbF43VL-10" value="&lt;font style=&quot;font-size: 16px&quot;&gt;Pre Processing&lt;/font&gt;" style="rounded=0;whiteSpace=wrap;html=1;" vertex="1" parent="1">
          <mxGeometry x="28" y="280" width="190" height="50" as="geometry" />
        </mxCell>
        <mxCell id="yBpJ2mjrpOOtbYbF43VL-16" value="" style="edgeStyle=orthogonalEdgeStyle;rounded=0;orthogonalLoop=1;jettySize=auto;html=1;" edge="1" parent="1" source="yBpJ2mjrpOOtbYbF43VL-11" target="yBpJ2mjrpOOtbYbF43VL-15">
          <mxGeometry relative="1" as="geometry" />
        </mxCell>
        <mxCell id="yBpJ2mjrpOOtbYbF43VL-11" value="&lt;font style=&quot;font-size: 16px&quot;&gt;Recognition&lt;/font&gt;" style="rounded=0;whiteSpace=wrap;html=1;" vertex="1" parent="1">
          <mxGeometry x="588" y="280" width="200" height="50" as="geometry" />
        </mxCell>
        <mxCell id="yBpJ2mjrpOOtbYbF43VL-12" value="" style="endArrow=classic;html=1;" edge="1" parent="1">
          <mxGeometry width="50" height="50" relative="1" as="geometry">
            <mxPoint x="105" y="240" as="sourcePoint" />
            <mxPoint x="105.46153846153845" y="280" as="targetPoint" />
          </mxGeometry>
        </mxCell>
        <mxCell id="yBpJ2mjrpOOtbYbF43VL-14" value="" style="endArrow=classic;html=1;" edge="1" parent="1">
          <mxGeometry width="50" height="50" relative="1" as="geometry">
            <mxPoint x="698" y="240" as="sourcePoint" />
            <mxPoint x="698.4615384615385" y="280" as="targetPoint" />
          </mxGeometry>
        </mxCell>
        <mxCell id="yBpJ2mjrpOOtbYbF43VL-18" value="" style="edgeStyle=orthogonalEdgeStyle;rounded=0;orthogonalLoop=1;jettySize=auto;html=1;" edge="1" parent="1" source="yBpJ2mjrpOOtbYbF43VL-15" target="yBpJ2mjrpOOtbYbF43VL-17">
          <mxGeometry relative="1" as="geometry" />
        </mxCell>
        <mxCell id="yBpJ2mjrpOOtbYbF43VL-15" value="&lt;font style=&quot;font-size: 16px&quot;&gt;Processing Image&lt;/font&gt;" style="rounded=0;whiteSpace=wrap;html=1;" vertex="1" parent="1">
          <mxGeometry x="588" y="360" width="200" height="50" as="geometry" />
        </mxCell>
        <mxCell id="yBpJ2mjrpOOtbYbF43VL-20" value="" style="edgeStyle=orthogonalEdgeStyle;rounded=0;orthogonalLoop=1;jettySize=auto;html=1;" edge="1" parent="1" source="yBpJ2mjrpOOtbYbF43VL-17" target="yBpJ2mjrpOOtbYbF43VL-19">
          <mxGeometry relative="1" as="geometry" />
        </mxCell>
        <mxCell id="yBpJ2mjrpOOtbYbF43VL-17" value="&lt;font style=&quot;font-size: 16px&quot;&gt;Retrive the Stored Image&lt;/font&gt;" style="rounded=0;whiteSpace=wrap;html=1;" vertex="1" parent="1">
          <mxGeometry x="588" y="440" width="200" height="50" as="geometry" />
        </mxCell>
        <mxCell id="yBpJ2mjrpOOtbYbF43VL-22" value="" style="edgeStyle=orthogonalEdgeStyle;rounded=0;orthogonalLoop=1;jettySize=auto;html=1;" edge="1" parent="1" source="yBpJ2mjrpOOtbYbF43VL-19" target="yBpJ2mjrpOOtbYbF43VL-21">
          <mxGeometry relative="1" as="geometry" />
        </mxCell>
        <mxCell id="yBpJ2mjrpOOtbYbF43VL-19" value="&lt;font style=&quot;font-size: 16px&quot;&gt;Compare both Images&lt;/font&gt;" style="rounded=0;whiteSpace=wrap;html=1;" vertex="1" parent="1">
          <mxGeometry x="588" y="520" width="200" height="50" as="geometry" />
        </mxCell>
        <mxCell id="yBpJ2mjrpOOtbYbF43VL-42" value="" style="edgeStyle=orthogonalEdgeStyle;rounded=0;orthogonalLoop=1;jettySize=auto;html=1;" edge="1" parent="1" source="yBpJ2mjrpOOtbYbF43VL-21" target="yBpJ2mjrpOOtbYbF43VL-41">
          <mxGeometry relative="1" as="geometry" />
        </mxCell>
        <mxCell id="yBpJ2mjrpOOtbYbF43VL-21" value="&lt;font style=&quot;font-size: 16px&quot;&gt;Compare the Maximal Percentage&lt;/font&gt;" style="rounded=0;whiteSpace=wrap;html=1;" vertex="1" parent="1">
          <mxGeometry x="588" y="600" width="200" height="50" as="geometry" />
        </mxCell>
        <mxCell id="yBpJ2mjrpOOtbYbF43VL-26" value="" style="edgeStyle=orthogonalEdgeStyle;rounded=0;orthogonalLoop=1;jettySize=auto;html=1;" edge="1" parent="1" source="yBpJ2mjrpOOtbYbF43VL-23" target="yBpJ2mjrpOOtbYbF43VL-25">
          <mxGeometry relative="1" as="geometry" />
        </mxCell>
        <mxCell id="yBpJ2mjrpOOtbYbF43VL-23" value="&lt;font style=&quot;font-size: 16px&quot;&gt;Pre Processing Image&lt;/font&gt;" style="rounded=0;whiteSpace=wrap;html=1;" vertex="1" parent="1">
          <mxGeometry x="298" y="360" width="220" height="50" as="geometry" />
        </mxCell>
        <mxCell id="yBpJ2mjrpOOtbYbF43VL-28" value="" style="edgeStyle=orthogonalEdgeStyle;rounded=0;orthogonalLoop=1;jettySize=auto;html=1;" edge="1" parent="1" source="yBpJ2mjrpOOtbYbF43VL-25" target="yBpJ2mjrpOOtbYbF43VL-27">
          <mxGeometry relative="1" as="geometry" />
        </mxCell>
        <mxCell id="yBpJ2mjrpOOtbYbF43VL-25" value="&lt;font style=&quot;font-size: 16px&quot;&gt;Find the neighborhood nodal points&lt;/font&gt;" style="rounded=0;whiteSpace=wrap;html=1;" vertex="1" parent="1">
          <mxGeometry x="298" y="440" width="220" height="50" as="geometry" />
        </mxCell>
        <mxCell id="yBpJ2mjrpOOtbYbF43VL-30" value="" style="edgeStyle=orthogonalEdgeStyle;rounded=0;orthogonalLoop=1;jettySize=auto;html=1;" edge="1" parent="1" source="yBpJ2mjrpOOtbYbF43VL-27" target="yBpJ2mjrpOOtbYbF43VL-29">
          <mxGeometry relative="1" as="geometry" />
        </mxCell>
        <mxCell id="yBpJ2mjrpOOtbYbF43VL-27" value="&lt;font style=&quot;font-size: 16px&quot;&gt;Find the nodal points&lt;/font&gt;" style="rounded=0;whiteSpace=wrap;html=1;" vertex="1" parent="1">
          <mxGeometry x="298" y="520" width="220" height="50" as="geometry" />
        </mxCell>
        <mxCell id="yBpJ2mjrpOOtbYbF43VL-44" value="" style="edgeStyle=orthogonalEdgeStyle;rounded=0;orthogonalLoop=1;jettySize=auto;html=1;" edge="1" parent="1" source="yBpJ2mjrpOOtbYbF43VL-29" target="yBpJ2mjrpOOtbYbF43VL-43">
          <mxGeometry relative="1" as="geometry" />
        </mxCell>
        <mxCell id="yBpJ2mjrpOOtbYbF43VL-29" value="&lt;font style=&quot;font-size: 16px&quot;&gt;Compare the image&lt;/font&gt;" style="rounded=0;whiteSpace=wrap;html=1;" vertex="1" parent="1">
          <mxGeometry x="298" y="600" width="220" height="50" as="geometry" />
        </mxCell>
        <mxCell id="yBpJ2mjrpOOtbYbF43VL-34" value="" style="edgeStyle=orthogonalEdgeStyle;rounded=0;orthogonalLoop=1;jettySize=auto;html=1;" edge="1" parent="1" source="yBpJ2mjrpOOtbYbF43VL-31" target="yBpJ2mjrpOOtbYbF43VL-33">
          <mxGeometry relative="1" as="geometry" />
        </mxCell>
        <mxCell id="yBpJ2mjrpOOtbYbF43VL-31" value="&lt;font style=&quot;font-size: 16px&quot;&gt;Pre Processing Image&lt;/font&gt;" style="rounded=0;whiteSpace=wrap;html=1;" vertex="1" parent="1">
          <mxGeometry x="28" y="360" width="190" height="50" as="geometry" />
        </mxCell>
        <mxCell id="yBpJ2mjrpOOtbYbF43VL-36" value="" style="edgeStyle=orthogonalEdgeStyle;rounded=0;orthogonalLoop=1;jettySize=auto;html=1;" edge="1" parent="1" source="yBpJ2mjrpOOtbYbF43VL-33" target="yBpJ2mjrpOOtbYbF43VL-35">
          <mxGeometry relative="1" as="geometry" />
        </mxCell>
        <mxCell id="yBpJ2mjrpOOtbYbF43VL-33" value="&lt;font style=&quot;font-size: 16px&quot;&gt;Convert gray image&lt;/font&gt;" style="rounded=0;whiteSpace=wrap;html=1;" vertex="1" parent="1">
          <mxGeometry x="28" y="440" width="190" height="50" as="geometry" />
        </mxCell>
        <mxCell id="yBpJ2mjrpOOtbYbF43VL-38" value="" style="edgeStyle=orthogonalEdgeStyle;rounded=0;orthogonalLoop=1;jettySize=auto;html=1;" edge="1" parent="1" source="yBpJ2mjrpOOtbYbF43VL-35" target="yBpJ2mjrpOOtbYbF43VL-37">
          <mxGeometry relative="1" as="geometry" />
        </mxCell>
        <mxCell id="yBpJ2mjrpOOtbYbF43VL-35" value="&lt;font style=&quot;font-size: 16px&quot;&gt;10 Different Directions&lt;/font&gt;" style="rounded=0;whiteSpace=wrap;html=1;" vertex="1" parent="1">
          <mxGeometry x="28" y="520" width="190" height="50" as="geometry" />
        </mxCell>
        <mxCell id="yBpJ2mjrpOOtbYbF43VL-37" value="&lt;font style=&quot;font-size: 16px&quot;&gt;28 Dimensions&lt;/font&gt;" style="rounded=0;whiteSpace=wrap;html=1;" vertex="1" parent="1">
          <mxGeometry x="28" y="600" width="190" height="50" as="geometry" />
        </mxCell>
        <mxCell id="yBpJ2mjrpOOtbYbF43VL-41" value="&lt;font style=&quot;font-size: 16px&quot;&gt;Testing the Image&lt;/font&gt;" style="rounded=0;whiteSpace=wrap;html=1;" vertex="1" parent="1">
          <mxGeometry x="588" y="730" width="200" height="50" as="geometry" />
        </mxCell>
        <mxCell id="yBpJ2mjrpOOtbYbF43VL-43" value="&lt;font style=&quot;font-size: 16px&quot;&gt;Testing Image&lt;/font&gt;" style="rounded=0;whiteSpace=wrap;html=1;" vertex="1" parent="1">
          <mxGeometry x="298" y="730" width="220" height="50" as="geometry" />
        </mxCell>
        <mxCell id="yBpJ2mjrpOOtbYbF43VL-45" value="" style="edgeStyle=orthogonalEdgeStyle;rounded=0;orthogonalLoop=1;jettySize=auto;html=1;" edge="1" parent="1">
          <mxGeometry relative="1" as="geometry">
            <mxPoint x="687.5" y="780" as="sourcePoint" />
            <mxPoint x="687.5" y="860" as="targetPoint" />
          </mxGeometry>
        </mxCell>
        <mxCell id="yBpJ2mjrpOOtbYbF43VL-46" value="" style="edgeStyle=orthogonalEdgeStyle;rounded=0;orthogonalLoop=1;jettySize=auto;html=1;" edge="1" parent="1">
          <mxGeometry relative="1" as="geometry">
            <mxPoint x="407.5" y="780" as="sourcePoint" />
            <mxPoint x="407.5" y="860" as="targetPoint" />
          </mxGeometry>
        </mxCell>
        <mxCell id="yBpJ2mjrpOOtbYbF43VL-49" value="" style="endArrow=none;html=1;" edge="1" parent="1">
          <mxGeometry width="50" height="50" relative="1" as="geometry">
            <mxPoint x="28" y="860" as="sourcePoint" />
            <mxPoint x="788" y="860" as="targetPoint" />
          </mxGeometry>
        </mxCell>
        <mxCell id="yBpJ2mjrpOOtbYbF43VL-50" value="" style="endArrow=classic;html=1;exitX=0.5;exitY=1;exitDx=0;exitDy=0;" edge="1" parent="1" source="yBpJ2mjrpOOtbYbF43VL-37">
          <mxGeometry width="50" height="50" relative="1" as="geometry">
            <mxPoint x="68" y="740" as="sourcePoint" />
            <mxPoint x="123" y="860" as="targetPoint" />
          </mxGeometry>
        </mxCell>
        <mxCell id="yBpJ2mjrpOOtbYbF43VL-52" value="" style="rounded=0;whiteSpace=wrap;html=1;fillColor=none;" vertex="1" parent="1">
          <mxGeometry x="-40" y="30" width="890" height="890" as="geometry" />
        </mxCell>
        <mxCell id="yBpJ2mjrpOOtbYbF43VL-54" value="&lt;font style=&quot;font-size: 20px&quot;&gt;Data Flow Diagram&lt;/font&gt;" style="text;html=1;strokeColor=none;fillColor=none;align=center;verticalAlign=middle;whiteSpace=wrap;rounded=0;" vertex="1" parent="1">
          <mxGeometry x="-10" y="70" width="182" height="60" as="geometry" />
        </mxCell>
      </root>
    </mxGraphModel>
  </diagram>
</mxfile>
